<?xml version="1.0" encoding="UTF-8"?>
<svg version="1.1" xmlns="http://www.w3.org/2000/svg" width="512" height="512">
<path d="M0 0 C1.17626953 -0.020625 2.35253906 -0.04125 3.56445312 -0.0625 C10.48981755 -0.09381878 15.69577483 -0.00091654 21 4.9375 C22.1875 7.25 22.1875 7.25 23.1875 15.25 C93.1475 15.25 163.1075 15.25 235.1875 15.25 C235.1875 12.61 235.1875 9.97 235.1875 7.25 C237.58544091 3.16461919 239.75875972 1.68820121 244.1875 0.25 C248.49199727 -0.1635052 252.80259903 -0.07439433 257.125 -0.0625 C258.29224609 -0.07861328 259.45949219 -0.09472656 260.66210938 -0.11132812 C271.40815356 -0.11745123 271.40815356 -0.11745123 276.1875 3.25 C279.47982337 7.20078804 279.29316407 10.24856726 279.1875 15.25 C279.95416992 15.23428955 280.72083984 15.2185791 281.51074219 15.20239258 C284.98625302 15.14001026 288.46164601 15.10099838 291.9375 15.0625 C293.1440625 15.03736328 294.350625 15.01222656 295.59375 14.98632812 C296.75390625 14.97666016 297.9140625 14.96699219 299.109375 14.95703125 C300.71184082 14.93346558 300.71184082 14.93346558 302.34667969 14.90942383 C305.5683083 15.2956538 306.8988071 15.98493961 309.1875 18.25 C310.3701533 21.87680345 310.49650068 23.55474847 308.9375 27.0625 C307.1875 29.25 307.1875 29.25 304.1875 30.25 C302.26843083 30.33266486 300.34660526 30.35740663 298.42578125 30.34765625 C297.30751953 30.34443359 296.18925781 30.34121094 295.03710938 30.33789062 C293.86986328 30.32951172 292.70261719 30.32113281 291.5 30.3125 C290.32115234 30.30798828 289.14230469 30.30347656 287.92773438 30.29882812 C285.01427211 30.28703273 282.10091137 30.2705727 279.1875 30.25 C279.14939209 30.86488281 279.11128418 31.47976562 279.07202148 32.11328125 C279.00571533 32.92152344 278.93940918 33.72976562 278.87109375 34.5625 C278.81236084 35.36300781 278.75362793 36.16351563 278.69311523 36.98828125 C277.8172186 40.90634326 275.46143765 42.11191827 272.1875 44.25 C271.5275 44.58 270.8675 44.91 270.1875 45.25 C270.11739945 72.60552784 270.06450664 99.96104221 270.03206348 127.31664181 C270.01659876 140.01849814 269.99551667 152.72029864 269.96118164 165.42211914 C269.93126734 176.49382981 269.91192213 187.56550004 269.90523452 198.63725001 C269.90132573 204.49891419 269.89214753 210.36046268 269.87030983 216.22208977 C269.84991272 221.74187827 269.84367278 227.26150368 269.84817696 232.78132629 C269.8473532 234.80453948 269.84140688 236.82775826 269.82988358 238.8509388 C269.81488904 241.61993543 269.81857174 244.38832169 269.82673645 247.15733337 C269.81799793 247.95210789 269.8092594 248.74688241 269.80025607 249.565741 C269.84733759 255.50037405 270.57652243 262.15147873 274.53325874 266.84705013 C280.5473057 272.1186372 286.36993331 272.60089698 294 272.875 C297.031875 272.99875 300.06375 273.1225 303.1875 273.25 C303.1875 281.5 303.1875 289.75 303.1875 298.25 C272.4975 298.25 241.8075 298.25 210.1875 298.25 C210.1875 290 210.1875 281.75 210.1875 273.25 C219.25 272.9375 219.25 272.9375 222.06274414 272.86206055 C228.84140806 272.56437587 233.6927871 271.35664645 239 266.875 C243.28286305 261.73556435 243.48127718 256.98865791 243.4659729 250.48649597 C243.4746615 249.16314215 243.4746615 249.16314215 243.48352563 247.81305391 C243.5005286 244.85734719 243.50340241 241.90179659 243.50634766 238.94604492 C243.51564562 236.82710385 243.52581409 234.70816645 243.53678894 232.5892334 C243.56411781 226.83558853 243.57924696 221.08196819 243.59221697 215.32827544 C243.60783483 209.3157709 243.63462935 203.30331653 243.6602478 197.29084778 C243.70705938 185.90479965 243.743792 174.51874212 243.77692068 163.13264686 C243.81512523 150.17023141 243.86453977 137.20786631 243.91490483 124.24549329 C244.01826008 97.58036618 244.10750883 70.91520672 244.1875 44.25 C243.41019531 44.12753906 242.63289063 44.00507812 241.83203125 43.87890625 C239.1875 43.25 239.1875 43.25 236.875 41.1875 C235.1875 38.25 235.1875 38.25 235.1875 30.25 C165.2275 30.25 95.2675 30.25 23.1875 30.25 C22.8575 32.89 22.5275 35.53 22.1875 38.25 C20.4375 41.1875 20.4375 41.1875 18.1875 43.25 C15.7125 43.745 15.7125 43.745 13.1875 44.25 C13.1875 60.42 13.1875 76.59 13.1875 93.25 C57.4075 93.25 101.6275 93.25 147.1875 93.25 C147.5175 90.28 147.8475 87.31 148.1875 84.25 C150.38573815 81.54447612 152.08306667 79.80221667 155.1875 78.25 C159.25488762 77.99232296 163.32402454 77.97896623 167.39892578 77.95483398 C169.41639084 77.93767949 171.43219093 77.89380129 173.44921875 77.84960938 C175.36927734 77.83704102 175.36927734 77.83704102 177.328125 77.82421875 C178.49891602 77.80963623 179.66970703 77.79505371 180.87597656 77.7800293 C184.89335959 78.35017544 187.0399945 79.73668042 190.1875 82.25 C192.33899019 85.96621033 192.24560998 89.03121533 192.1875 93.25 C192.98969971 93.23428955 193.79189941 93.2185791 194.6184082 93.20239258 C198.24553404 93.14011417 201.87254749 93.10103136 205.5 93.0625 C206.76263672 93.03736328 208.02527344 93.01222656 209.32617188 92.98632812 C210.53466797 92.97666016 211.74316406 92.96699219 212.98828125 92.95703125 C214.66144409 92.93346558 214.66144409 92.93346558 216.3684082 92.90942383 C219.1875 93.25 219.1875 93.25 221.05004883 94.6472168 C222.46541174 96.64160562 222.59011946 97.81948753 222.5625 100.25 C222.57023437 100.930625 222.57796875 101.61125 222.5859375 102.3125 C222.05162262 104.91073705 221.31001699 105.65776449 219.1875 107.25 C216.3684082 107.59057617 216.3684082 107.59057617 212.98828125 107.54296875 C211.77978516 107.53330078 210.57128906 107.52363281 209.32617188 107.51367188 C207.4322168 107.4759668 207.4322168 107.4759668 205.5 107.4375 C203.58864258 107.41719727 203.58864258 107.41719727 201.63867188 107.39648438 C198.48785943 107.36108199 195.33788955 107.3116979 192.1875 107.25 C192.11946167 108.17232422 192.11946167 108.17232422 192.05004883 109.11328125 C191.97810303 109.92152344 191.90615723 110.72976562 191.83203125 111.5625 C191.73305542 112.76326172 191.73305542 112.76326172 191.63208008 113.98828125 C190.92865933 117.56680393 189.03723283 119.12926859 186.1875 121.25 C184.01953125 121.875 184.01953125 121.875 182.1875 122.25 C182.24801556 149.90092233 182.32550215 177.55175197 182.42321491 205.20256901 C182.46818817 218.04120628 182.50759937 230.87981572 182.53393555 243.71850586 C182.55690316 254.90817684 182.59028746 266.09775986 182.63620156 277.28736109 C182.66015032 283.21264004 182.67886832 289.13783178 182.68511391 295.06315804 C182.69115719 300.64045355 182.71113002 306.21752585 182.74177551 311.79473877 C182.7505678 313.84134306 182.75427586 315.88797651 182.75250816 317.93459892 C182.75085572 320.73062886 182.76755246 323.52597813 182.78877258 326.32191467 C182.78392501 327.13029677 182.77907743 327.93867887 182.77408296 328.77155739 C182.85481844 335.22508005 184.2942052 339.79985379 188.3125 345 C196.43952681 351.36028185 206.30417582 350.83473428 216.1875 351.25 C216.1875 359.5 216.1875 367.75 216.1875 376.25 C204.20946106 376.27254967 192.2314361 376.2909143 180.25338078 376.30181217 C174.69210589 376.30704134 169.13084621 376.31413958 163.56958008 376.32543945 C158.20742581 376.33626715 152.84528622 376.34227658 147.48312187 376.34487724 C145.43249722 376.34673171 143.3818734 376.35035272 141.33125496 376.35573006 C138.46959797 376.36293893 135.60800243 376.36399101 132.74633789 376.36352539 C131.88966522 376.36712067 131.03299255 376.37071594 130.15036011 376.37442017 C124.30155216 376.36405216 124.30155216 376.36405216 123.1875 375.25 C123.10023777 373.46928754 123.08050959 371.6851686 123.08984375 369.90234375 C123.09306641 368.82275391 123.09628906 367.74316406 123.09960938 366.63085938 C123.10798828 365.49455078 123.11636719 364.35824219 123.125 363.1875 C123.12951172 362.04732422 123.13402344 360.90714844 123.13867188 359.73242188 C123.15050253 356.90489649 123.1669859 354.0774736 123.1875 351.25 C124.23808594 351.21261719 125.28867187 351.17523438 126.37109375 351.13671875 C141.04773893 350.71807925 141.04773893 350.71807925 153.1875 343.25 C156.04990543 337.7664754 156.62280013 333.41217425 156.58622742 327.28395081 C156.59287424 326.40408963 156.59952107 325.52422845 156.60636932 324.61770481 C156.62495881 321.68194787 156.62239674 318.74659994 156.61987305 315.81079102 C156.62889267 313.70140509 156.63922038 311.59202442 156.65075684 309.48265076 C156.67832933 303.76422553 156.68761175 298.04589975 156.69361091 292.32741666 C156.70299386 286.34827819 156.72919723 280.36921402 156.75361633 274.39012146 C156.79728709 263.07142617 156.82583057 251.75274529 156.84893972 240.43399137 C156.87598824 227.54648613 156.91990001 214.6590556 156.96522844 201.7716037 C157.05808302 175.26444298 157.12976009 148.75725882 157.1875 122.25 C156.23488281 121.95222656 155.28226562 121.65445313 154.30078125 121.34765625 C150.75259962 120.09666624 149.81942072 119.599732 148.1875 116.25 C147.8575 113.28 147.5275 110.31 147.1875 107.25 C81.3525 107.745 81.3525 107.745 14.1875 108.25 C14.10009667 134.73924442 14.10009667 134.73924442 14.04101562 161.22851562 C14.0232146 172.0307238 14.00228755 182.83286177 13.96118164 193.63500977 C13.93125874 201.50215281 13.91192012 209.36923889 13.90523452 217.23643726 C13.90132715 221.40119696 13.89215831 225.56579374 13.87030983 229.73050117 C13.84989897 233.65307118 13.84367545 237.57541164 13.84817696 241.49802971 C13.84735381 242.9351158 13.84141548 244.37220982 13.82988358 245.80924988 C13.55555645 257.15624224 13.55555645 257.15624224 18.6171875 266.95703125 C25.03356679 271.86469433 30.15480731 272.59316878 38 272.875 C41.031875 272.99875 44.06375 273.1225 47.1875 273.25 C47.1875 281.5 47.1875 289.75 47.1875 298.25 C16.4975 298.25 -14.1925 298.25 -45.8125 298.25 C-45.8125 290 -45.8125 281.75 -45.8125 273.25 C-36.8125 273 -36.8125 273 -34.02734375 272.95214844 C-26.97983195 272.66504997 -21.43190469 270.93833639 -16.4375 265.8125 C-13.47418577 261.1395814 -12.56273352 257.48547361 -12.57199097 251.95414734 C-12.56924164 250.68515091 -12.56649231 249.41615448 -12.56365967 248.10870361 C-12.57073704 246.71008206 -12.57800664 245.31146146 -12.58544922 243.9128418 C-12.5860136 242.43429065 -12.58569624 240.95573894 -12.58456421 239.47718811 C-12.58399076 235.46929831 -12.59574387 231.4615284 -12.60971212 227.45366645 C-12.6222207 223.26296583 -12.62339008 219.07226242 -12.62576294 214.88154602 C-12.63197733 206.94850937 -12.64838761 199.0155279 -12.66846192 191.08251554 C-12.69082217 182.04993107 -12.70181467 173.01734396 -12.71185279 163.98473871 C-12.73275387 145.40645485 -12.76942961 126.82824661 -12.8125 108.25 C-29.6425 108.25 -46.4725 108.25 -63.8125 108.25 C-64.4725 111.22 -65.1325 114.19 -65.8125 117.25 C-68.8125 120.3125 -68.8125 120.3125 -71.8125 122.25 C-72.4725 122.25 -73.1325 122.25 -73.8125 122.25 C-73.75199849 150.17896008 -73.67452191 178.10782831 -73.57678509 206.03668404 C-73.53180178 219.00426547 -73.49239292 231.97181929 -73.46606445 244.93945312 C-73.44310496 256.24081543 -73.4097298 267.54209051 -73.36379844 278.84338367 C-73.33983869 284.82843441 -73.32112791 290.81339862 -73.31488609 296.79849625 C-73.30884776 302.43077982 -73.28889297 308.0628419 -73.25822449 313.69504356 C-73.24942422 315.76303127 -73.24572578 317.8310479 -73.24749184 319.89905357 C-73.24914139 322.72170641 -73.23247221 325.54368151 -73.21122742 328.36624146 C-73.21607499 329.18531829 -73.22092257 330.00439512 -73.22591704 330.84829247 C-73.14668336 337.22346028 -71.68822244 341.33065611 -67.125 346 C-59.58250279 351.69796399 -48.84973735 350.8332342 -39.8125 351.25 C-39.78363016 355.22915159 -39.76574594 359.20827653 -39.75 363.1875 C-39.73743164 364.89196289 -39.73743164 364.89196289 -39.72460938 366.63085938 C-39.72138672 367.71044922 -39.71816406 368.79003906 -39.71484375 369.90234375 C-39.70960693 370.90257568 -39.70437012 371.90280762 -39.69897461 372.93334961 C-39.8125 375.25 -39.8125 375.25 -40.8125 376.25 C-43.67341818 376.34522418 -46.51013621 376.37553326 -49.37133789 376.36352539 C-50.26881241 376.36367142 -51.16628693 376.36381744 -52.09095764 376.3639679 C-55.07238134 376.36326842 -58.0537434 376.35547441 -61.03515625 376.34765625 C-63.09638942 376.34579219 -65.15762304 376.34436823 -67.21885681 376.34336853 C-72.6555401 376.33954237 -78.09219686 376.32971126 -83.52886963 376.31866455 C-89.07197714 376.30845253 -94.61508892 376.30387136 -100.15820312 376.29882812 C-111.04298231 376.28808908 -121.9277348 376.27049149 -132.8125 376.25 C-132.8125 368 -132.8125 359.75 -132.8125 351.25 C-130.358125 351.146875 -127.90375 351.04375 -125.375 350.9375 C-117.74156119 350.50493847 -111.23670206 349.78093196 -104.9375 345.125 C-100.28594972 338.8317261 -99.36628051 331.87018013 -99.41136169 324.22221375 C-99.40456502 323.35980019 -99.39776836 322.49738663 -99.39076573 321.60883933 C-99.37190527 318.74390209 -99.37422321 315.87939641 -99.37670898 313.0144043 C-99.36772506 310.9506221 -99.35751536 308.88684494 -99.34617615 306.82307434 C-99.31975085 301.23671287 -99.31264624 295.65048936 -99.31072879 290.06407142 C-99.30859356 286.57391224 -99.3021839 283.08378796 -99.29423714 279.59363747 C-99.26651857 267.41876629 -99.25422851 255.24399348 -99.2565918 243.0690918 C-99.25839781 231.7154455 -99.22666027 220.36222513 -99.17936081 209.00868672 C-99.14018492 199.25818449 -99.12403774 189.50782192 -99.12595803 179.75724155 C-99.12672386 173.93433396 -99.11812023 168.11180592 -99.08642387 162.28897667 C-99.05746104 156.81977585 -99.05708637 151.35131993 -99.07897377 145.88209343 C-99.08212043 143.87289598 -99.07496843 141.86365274 -99.0568924 139.85453415 C-99.03384764 137.11642638 -99.04757929 134.38091696 -99.07078552 131.64286804 C-99.05535483 130.84355934 -99.03992414 130.04425064 -99.02402586 129.22072047 C-99.00534242 126.72366862 -99.00534242 126.72366862 -99.8125 123.25 C-102.634405 120.79857589 -102.634405 120.79857589 -105.8125 119.25 C-109.0597126 115.24510446 -108.91871694 112.28350278 -108.8125 107.25 C-109.60946289 107.27618408 -110.40642578 107.30236816 -111.22753906 107.3293457 C-114.83899213 107.43328945 -118.45013072 107.49832085 -122.0625 107.5625 C-123.31675781 107.60439453 -124.57101563 107.64628906 -125.86328125 107.68945312 C-127.67119141 107.71362305 -127.67119141 107.71362305 -129.515625 107.73828125 C-131.18093262 107.77755737 -131.18093262 107.77755737 -132.87988281 107.81762695 C-135.8125 107.25 -135.8125 107.25 -138.20996094 104.91479492 C-139.8125 102.25 -139.8125 102.25 -139.75 99.125 C-138.76670808 96.10957143 -138.32598526 95.08973297 -135.8125 93.25 C-132.9934082 92.90942383 -132.9934082 92.90942383 -129.61328125 92.95703125 C-128.40478516 92.96669922 -127.19628906 92.97636719 -125.95117188 92.98632812 C-124.68853516 93.01146484 -123.42589844 93.03660156 -122.125 93.0625 C-120.21364258 93.08280273 -120.21364258 93.08280273 -118.26367188 93.10351562 C-115.11285943 93.13891801 -111.96288955 93.1883021 -108.8125 93.25 C-108.86664063 91.61998047 -108.86664063 91.61998047 -108.921875 89.95703125 C-108.78920594 85.46049778 -107.67049182 83.66371245 -104.8125 80.25 C-99.95615717 77.04185805 -94.05507456 77.84023776 -88.45019531 77.82446289 C-86.45086126 77.81257942 -84.45186985 77.76285925 -82.453125 77.71289062 C-71.64730283 77.65261474 -71.64730283 77.65261474 -68.0234375 80.21484375 C-65.8125 83.25 -65.8125 83.25 -63.8125 92.25 C-46.6525 92.58 -29.4925 92.91 -11.8125 93.25 C-11.85375 85.4125 -11.895 77.575 -11.9375 69.5 C-11.93508301 67.03047852 -11.93266602 64.56095703 -11.93017578 62.01660156 C-11.95370025 60.05791302 -11.97942908 58.09924916 -12.0078125 56.140625 C-11.9987085 55.12468262 -11.98960449 54.10874023 -11.98022461 53.06201172 C-12.03525213 50.32422283 -12.13153774 47.90226128 -12.8125 45.25 C-15.59199354 42.62626122 -15.59199354 42.62626122 -18.8125 41.25 C-21.79769015 37.46875915 -21.92943686 34.96645354 -21.8125 30.25 C-22.54887695 30.26047363 -23.28525391 30.27094727 -24.04394531 30.28173828 C-27.38342876 30.32333702 -30.72285765 30.34933864 -34.0625 30.375 C-35.80080078 30.40013672 -35.80080078 30.40013672 -37.57421875 30.42578125 C-38.68925781 30.43222656 -39.80429688 30.43867187 -40.953125 30.4453125 C-41.97954102 30.45578613 -43.00595703 30.46625977 -44.06347656 30.47705078 C-46.8643709 30.24571581 -48.4765697 29.78240793 -50.8125 28.25 C-52.35836876 25.15826248 -52.10609521 22.65570448 -51.8125 19.25 C-49.68417559 16.39152975 -48.52558006 15.36398495 -44.97167969 14.79589844 C-43.36921387 14.82731934 -43.36921387 14.82731934 -41.734375 14.859375 C-40.57421875 14.87226562 -39.4140625 14.88515625 -38.21875 14.8984375 C-37.0121875 14.93195313 -35.805625 14.96546875 -34.5625 15 C-32.72945312 15.02707031 -32.72945312 15.02707031 -30.859375 15.0546875 C-27.84295922 15.101819 -24.82812509 15.16760587 -21.8125 15.25 C-21.74554932 14.32767578 -21.74554932 14.32767578 -21.67724609 13.38671875 C-21.60586426 12.57847656 -21.53448242 11.77023438 -21.4609375 10.9375 C-21.39567871 10.13699219 -21.33041992 9.33648437 -21.26318359 8.51171875 C-20.55678149 4.96669758 -18.61070785 3.38196788 -15.8125 1.25 C-10.70556452 -0.45231183 -5.3462462 0.02320671 0 0 Z " fill="#fff" transform="translate(170.8125,67.75)"/>
</svg>
