<?xml version="1.0" encoding="UTF-8"?>
<svg version="1.1" xmlns="http://www.w3.org/2000/svg" width="512" height="512">
<path d="M0 0 C168.96 0 337.92 0 512 0 C512 30.03 512 60.06 512 91 C487.58 91 463.16 91 438 91 C437.67 92.65 437.34 94.3 437 96 C436.32601571 97.88510941 435.60656493 99.7542812 434.85449219 101.60961914 C434.41022888 102.71169205 433.96596558 103.81376495 433.50823975 104.94923401 C433.02598938 106.13258835 432.54373901 107.31594269 432.046875 108.53515625 C431.54425195 109.77706903 431.04200002 111.01913208 430.5401001 112.26133728 C429.21759603 115.53145259 427.88974479 118.79937122 426.56085205 122.06689453 C425.48981083 124.70285718 424.42245002 127.34030176 423.35532761 129.97785282 C421.12847786 135.48168816 418.89853621 140.98427122 416.66308594 146.48461914 C416.226698 147.56832794 415.79031006 148.65203674 415.34069824 149.76858521 C414.42619806 151.97275711 413.46943791 154.15975158 412.47668457 156.32980347 C412.00001343 157.38555573 411.52334229 158.44130798 411.03222656 159.52905273 C410.59444885 160.46329575 410.15667114 161.39753876 409.70562744 162.36009216 C408.81939695 165.67567582 409.44208071 167.00279117 411 170 C411.47171631 170.96107666 411.94343262 171.92215332 412.42944336 172.91235352 C412.97737549 173.97381592 413.52530762 175.03527832 414.08984375 176.12890625 C414.39055786 176.71205597 414.69127197 177.29520569 415.00109863 177.89602661 C415.97726369 179.78622746 416.95721448 181.67443325 417.9375 183.5625 C418.26992706 184.20506744 418.60235413 184.84763489 418.94485474 185.50967407 C423.76220917 194.81930318 428.68845458 204.05876242 433.84936523 213.18383789 C434.26903564 213.93141357 434.68870605 214.67898926 435.12109375 215.44921875 C435.4864624 216.09205811 435.85183105 216.73489746 436.22827148 217.3972168 C437 219 437 219 437 221 C451.52 221 466.04 221 481 221 C481 240.8 481 260.6 481 281 C491.23 281 501.46 281 512 281 C512 291.23 512 301.46 512 312 C343.04 312 174.08 312 0 312 C0 301.77 0 291.54 0 281 C10.23 281 20.46 281 31 281 C31 261.2 31 241.4 31 221 C45.52 221 60.04 221 75 221 C75.99 218.03 75.99 218.03 77 215 C77.74449894 213.47164748 78.53251097 211.96369525 79.36328125 210.48046875 C79.83209717 209.63460205 80.30091309 208.78873535 80.78393555 207.91723633 C81.54057495 206.56601685 81.54057495 206.56601685 82.3125 205.1875 C87.04902945 196.61903998 91.66893626 187.99796617 96.1875 179.3125 C97.03405151 177.69154419 97.03405151 177.69154419 97.89770508 176.0378418 C98.42001709 175.03148682 98.9423291 174.02513184 99.48046875 172.98828125 C100.17499146 171.65083862 100.17499146 171.65083862 100.88354492 170.28637695 C102.68098311 166.85971656 102.68098311 166.85971656 102.51092529 163.1505127 C102.22211487 162.45695679 101.93330444 161.76340088 101.63574219 161.04882812 C101.31044525 160.25440811 100.98514832 159.4599881 100.6499939 158.64149475 C100.28596466 157.78011398 99.92193542 156.91873322 99.546875 156.03125 C99.17519196 155.13083481 98.80350891 154.23041962 98.42056274 153.30271912 C97.20562737 150.36483747 95.97770931 147.43256343 94.75 144.5 C93.91905719 142.49464743 93.08914344 140.48886815 92.26025391 138.48266602 C90.21994187 133.54847264 88.17064953 128.61807406 86.11853027 123.68878174 C84.00069122 118.59780913 81.89202374 113.5030983 79.79785156 108.40234375 C78.87029534 106.14361384 77.9375966 103.8869868 76.99902344 101.6328125 C76.59458008 100.64925781 76.19013672 99.66570312 75.7734375 98.65234375 C75.42716309 97.81695068 75.08088867 96.98155762 74.72412109 96.12084961 C74 94 74 94 74 91 C49.58 91 25.16 91 0 91 C0 60.97 0 30.94 0 0 Z M30 31 C30 40.57 30 50.14 30 60 C179.16 60 328.32 60 482 60 C482 50.43 482 40.86 482 31 C332.84 31 183.68 31 30 31 Z M107 91 C108.546875 95.0425 110.09375 99.085 111.6875 103.25 C112.16405029 104.49813477 112.64060059 105.74626953 113.1315918 107.03222656 C115.96219108 114.40974755 118.91845966 121.72374915 122 129 C122.66 129 123.32 129 124 129 C124.54358154 127.95042114 124.54358154 127.95042114 125.09814453 126.87963867 C126.77255064 123.64829593 128.44876581 120.4178948 130.125 117.1875 C130.69476563 116.08728516 131.26453125 114.98707031 131.8515625 113.85351562 C135.11883551 107.56030228 138.44975304 101.3167606 141.92919922 95.13793945 C143.14927537 93.10047784 143.14927537 93.10047784 143 91 C131.12 91 119.24 91 107 91 Z M179 91 C177.39852737 93.87409101 175.79850548 96.74898721 174.19873047 99.62402344 C173.74841965 100.4321347 173.29810883 101.24024597 172.83415222 102.07284546 C169.4930529 108.07968913 166.26467457 114.13535509 163.125 120.25 C159.21701883 127.80281567 155.22537826 135.2999595 151.125 142.75 C146.62291938 150.93640919 142.27905194 159.19494889 138 167.5 C132.73258932 177.72229267 127.31152271 187.8459383 121.77734375 197.92578125 C119.06493221 202.86871341 116.39455166 207.83296135 113.75 212.8125 C113.17511841 213.88975342 113.17511841 213.88975342 112.58862305 214.98876953 C110.79177929 217.84885653 110.79177929 217.84885653 110 221 C123.53 221 137.06 221 151 221 C151 240.8 151 260.6 151 281 C220.3 281 289.6 281 361 281 C361 261.2 361 241.4 361 221 C374.53 221 388.06 221 402 221 C394.95080965 206.89767803 394.95080965 206.89767803 387.75 192.875 C387.19699219 191.81152344 386.64398438 190.74804688 386.07421875 189.65234375 C381.98476345 181.81810251 377.77931067 174.05320875 373.52050781 166.31005859 C369.74547739 159.42465065 366.10379397 152.47636277 362.5 145.5 C357.89129469 136.57934906 353.16920519 127.73197708 348.33276367 118.93286133 C344.47686738 111.90881443 340.72592034 104.83389803 337.0324707 97.72314453 C335.34619065 94.13392305 335.34619065 94.13392305 333 91 C331.01305149 90.903292 329.02260987 90.87812948 327.03330994 90.87974548 C325.73615555 90.87837082 324.43900116 90.87699615 323.10253906 90.87557983 C321.6516111 90.87911945 320.20068337 90.88275427 318.74975586 90.88647461 C317.23238629 90.88675647 315.71501658 90.88659877 314.19764709 90.8860321 C310.06559484 90.88574409 305.93357137 90.89164142 301.80152583 90.89860606 C297.48801108 90.90483898 293.17449573 90.90544335 288.86097717 90.90663147 C280.68699883 90.90974497 272.51303379 90.91795861 264.33906132 90.92798096 C255.03571031 90.93914152 245.73235868 90.9446524 236.42900264 90.94967639 C217.28599421 90.96014121 198.14299817 90.97774101 179 91 Z M369 91 C370.63547635 96.00886121 370.63547635 96.00886121 372.78759766 100.61865234 C373.12779938 101.25886322 373.4680011 101.8990741 373.81851196 102.5586853 C374.18004364 103.22767853 374.54157532 103.89667175 374.9140625 104.5859375 C375.28856537 105.28772125 375.66306824 105.989505 376.04891968 106.71255493 C377.23658808 108.93573461 378.4306771 111.15538941 379.625 113.375 C380.43532368 114.88909401 381.24522397 116.40341471 382.0546875 117.91796875 C384.03156947 121.61461973 386.01421398 125.30812507 388 129 C388.66 129 389.32 129 390 129 C392.13843586 123.74983663 394.27462208 118.49876595 396.40869141 113.24682617 C397.13560588 111.4588117 397.86314396 109.67105063 398.59130859 107.88354492 C399.63541526 105.3201565 400.67730533 102.75587712 401.71875 100.19140625 C402.04685669 99.3872377 402.37496338 98.58306915 402.7130127 97.75453186 C404.29504905 94.47389569 404.29504905 94.47389569 405 91 C393.12 91 381.24 91 369 91 Z M61 252 C61 261.57 61 271.14 61 281 C80.8 281 100.6 281 121 281 C121 271.43 121 261.86 121 252 C101.2 252 81.4 252 61 252 Z M391 252 C391 261.57 391 271.14 391 281 C410.8 281 430.6 281 451 281 C451 271.43 451 261.86 451 252 C431.2 252 411.4 252 391 252 Z " fill="#fff" transform="translate(0,100)"/>
</svg>
