<?xml version="1.0" encoding="UTF-8"?>
<svg version="1.1" xmlns="http://www.w3.org/2000/svg" width="512" height="512">
<path d="M0 0 C5.92412956 2.69278616 6.5204325 4.91075688 10 11 C10 27.5 10 44 10 61 C74.68 61 139.36 61 206 61 C206 44.83 206 28.66 206 12 C210.63873239 2.72253521 210.63873239 2.72253521 215.01171875 0.625 C220.1183 -0.98021218 224.99324096 -0.82133049 229.8125 1.5625 C233.8292379 4.3217913 236.47148993 8.15338173 237.36460685 12.96381599 C237.51000935 15.15126049 237.52818789 17.30497106 237.50057125 19.49708652 C237.5088425 20.74746018 237.5088425 20.74746018 237.51728085 22.02309391 C237.53087858 24.81693182 237.51597738 27.60988047 237.50120544 30.40370178 C237.5050982 32.42662317 237.51073844 34.44954183 237.51797634 36.47245401 C237.53275239 42.03192324 237.52253686 47.59110984 237.50823963 53.15057003 C237.49714609 59.14586041 237.50906705 65.14111061 237.51808167 71.13639832 C237.53122073 82.20218836 237.5262251 93.26789803 237.51200638 104.33368 C237.49895638 114.55569246 237.49375829 124.77767236 237.49632454 134.99969292 C237.49656516 136.01662991 237.49656516 136.01662991 237.49681065 137.05411109 C237.49747423 139.80612863 237.49817664 142.55814616 237.49893599 145.31016368 C237.50596032 171.12690281 237.49046748 196.94358459 237.46431253 222.76030912 C237.44119479 245.70065702 237.43581022 268.6409419 237.44604492 291.58129883 C237.4486469 297.45609821 237.4512319 303.3308976 237.45364285 309.20569706 C237.45394029 309.92893809 237.45423774 310.65217912 237.4545442 311.39733655 C237.46215739 330.56289797 237.4557485 349.72845422 237.44494683 368.89401335 C237.44379901 370.95598761 237.44265583 373.01796188 237.44152 375.07993615 C237.44076475 376.4478102 237.43999911 377.81568425 237.43922299 379.18355829 C237.43356256 389.40023571 237.43489602 399.61689682 237.43945122 409.8335743 C237.44455629 421.44866513 237.43841848 433.06370425 237.41855692 444.67878181 C237.40866939 450.60756026 237.40359562 456.53623925 237.41144943 462.46502304 C237.41848731 467.88872309 237.41174596 473.3122221 237.3938458 478.73589557 C237.38978903 480.70145593 237.39082166 482.6670345 237.39736467 484.63258816 C237.40548096 487.29821929 237.39524401 489.96316747 237.38031673 492.62875462 C237.38705439 493.39712087 237.39379204 494.16548712 237.40073386 494.9571372 C237.34900451 499.71304526 236.52020833 502.96287682 234 507 C228.82590015 511.66930962 225.60378291 512.36287625 218.76171875 512.2734375 C214.82639396 511.88380138 212.85266868 510.71351411 210 508 C200.5501775 491.46281062 206 470.04672617 206 451 C141.32 451 76.64 451 10 451 C10 467.17 10 483.34 10 500 C5.36126761 509.27746479 5.36126761 509.27746479 0.98828125 511.375 C-4.1183 512.98021218 -8.99324096 512.82133049 -13.8125 510.4375 C-17.8292379 507.6782087 -20.47148993 503.84661827 -21.36460685 499.03618401 C-21.51000935 496.84873951 -21.52818789 494.69502894 -21.50057125 492.50291348 C-21.5088425 491.25253982 -21.5088425 491.25253982 -21.51728085 489.97690609 C-21.53087858 487.18306818 -21.51597738 484.39011953 -21.50120544 481.59629822 C-21.5050982 479.57337683 -21.51073844 477.55045817 -21.51797634 475.52754599 C-21.53275239 469.96807676 -21.52253686 464.40889016 -21.50823963 458.84942997 C-21.49714609 452.85413959 -21.50906705 446.85888939 -21.51808167 440.86360168 C-21.53122073 429.79781164 -21.5262251 418.73210197 -21.51200638 407.66632 C-21.49895638 397.44430754 -21.49375829 387.22232764 -21.49632454 377.00030708 C-21.49648495 376.32234909 -21.49664537 375.64439109 -21.49681065 374.94588891 C-21.49747423 372.19387137 -21.49817664 369.44185384 -21.49893599 366.68983632 C-21.50596032 340.87309719 -21.49046748 315.05641541 -21.46431253 289.23969088 C-21.44119479 266.29934298 -21.43581022 243.3590581 -21.44604492 220.41870117 C-21.4486469 214.54390179 -21.4512319 208.6691024 -21.45364285 202.79430294 C-21.45394029 202.07106191 -21.45423774 201.34782088 -21.4545442 200.60266345 C-21.46215739 181.43710203 -21.4557485 162.27154578 -21.44494683 143.10598665 C-21.44379901 141.04401239 -21.44265583 138.98203812 -21.44152 136.92006385 C-21.44076475 135.5521898 -21.43999911 134.18431575 -21.43922299 132.81644171 C-21.43356256 122.59976429 -21.43489602 112.38310318 -21.43945122 102.1664257 C-21.44455629 90.55133487 -21.43841848 78.93629575 -21.41855692 67.32121819 C-21.40866939 61.39243974 -21.40359562 55.46376075 -21.41144943 49.53497696 C-21.41848731 44.11127691 -21.41174596 38.6877779 -21.3938458 33.26410443 C-21.38978903 31.29854407 -21.39082166 29.3329655 -21.39736467 27.36741184 C-21.40548096 24.70178071 -21.39524401 22.03683253 -21.38031673 19.37124538 C-21.38705439 18.60287913 -21.39379204 17.83451288 -21.40073386 17.0428628 C-21.34900451 12.28695474 -20.52020833 9.03712318 -18 5 C-12.16551207 -0.2652696 -7.71405294 -0.76376762 0 0 Z M10 92 C10 111.47 10 130.94 10 151 C74.68 151 139.36 151 206 151 C206 131.53 206 112.06 206 92 C141.32 92 76.64 92 10 92 Z M10 182 C10 201.47 10 220.94 10 241 C74.68 241 139.36 241 206 241 C206 221.53 206 202.06 206 182 C141.32 182 76.64 182 10 182 Z M10 272 C10 291.47 10 310.94 10 331 C74.68 331 139.36 331 206 331 C206 311.53 206 292.06 206 272 C141.32 272 76.64 272 10 272 Z M10 361 C10 380.47 10 399.94 10 420 C74.68 420 139.36 420 206 420 C206 400.53 206 381.06 206 361 C141.32 361 76.64 361 10 361 Z " fill="#fff" transform="translate(148,0)"/>
</svg>
