<?xml version="1.0" encoding="UTF-8"?>
<svg version="1.1" xmlns="http://www.w3.org/2000/svg" width="512" height="512">
<path d="M0 0 C5.13299378 3.95391231 9.34230071 8.47090919 11.26171875 14.7421875 C12.79903717 28.07468356 10.22650484 37.92895773 4.26171875 49.7421875 C3.5052002 51.26972656 3.5052002 51.26972656 2.73339844 52.828125 C-4.42234038 67.21505859 -12.01226975 81.24711494 -20.73828125 94.7421875 C-21.35582275 95.70656738 -21.35582275 95.70656738 -21.98583984 96.69042969 C-30.99292743 110.70938185 -41.01795153 123.99025554 -51.73828125 136.7421875 C-52.60172868 137.7928322 -53.46500146 138.84362045 -54.328125 139.89453125 C-65.80937643 153.72709796 -78.46219544 166.78612165 -92.73828125 177.7421875 C-93.82358642 178.61474054 -94.90679872 179.48990097 -95.98828125 180.3671875 C-150.65867264 224.49433444 -207.40757675 225.38449969 -274.609375 219.578125 C-275.78661133 219.47862549 -276.96384766 219.37912598 -278.17675781 219.27661133 C-284.02075179 218.78260032 -289.86119816 218.26706707 -295.69970703 217.71191406 C-297.84920025 217.52572503 -299.99877374 217.34045963 -302.1484375 217.15625 C-303.1311412 217.05444427 -304.11384491 216.95263855 -305.12632751 216.8477478 C-309.70129801 216.47827012 -312.05679753 216.381337 -316.20092773 218.57568359 C-317.03825439 219.29062988 -317.87558105 220.00557617 -318.73828125 220.7421875 C-319.79015625 221.4846875 -320.84203125 222.2271875 -321.92578125 222.9921875 C-325.6001805 226.71430622 -325.98404176 231.67499463 -326.62573242 236.65332031 C-327.96822192 246.45005748 -332.8445218 252.44878923 -339.7578125 259.2578125 C-340.53460861 260.03606384 -341.31140472 260.81431519 -342.11174011 261.6161499 C-343.7484631 263.25122037 -345.39010798 264.88137723 -347.03637695 266.50683594 C-349.5448123 268.98628751 -352.03402585 271.48389828 -354.52148438 273.984375 C-356.11998327 275.57663644 -357.71955726 277.16781946 -359.3203125 278.7578125 C-360.05909134 279.49952698 -360.79787018 280.24124146 -361.55903625 281.00543213 C-369.23205106 288.54084647 -375.54238898 291.89302589 -386.36328125 292.1171875 C-387.02457031 292.15457031 -387.68585938 292.19195312 -388.3671875 292.23046875 C-397.29122028 292.38462671 -403.96850651 287.76952184 -410.26049805 281.8034668 C-412.25890886 279.8296099 -414.22443939 277.82533353 -416.1875 275.81640625 C-417.25399818 274.74309879 -418.3215497 273.67083708 -419.39009094 272.5995636 C-422.18195933 269.79437955 -424.95809847 266.97411442 -427.73144531 264.15063477 C-429.98501572 261.86166966 -432.24970533 259.58388867 -434.51506329 257.30659771 C-437.24307532 254.5636948 -439.96595458 251.81572392 -442.6875 249.06640625 C-443.45065301 248.29588708 -443.45065301 248.29588708 -444.22922325 247.50980186 C-449.33434952 242.34684826 -454.32990754 237.13698097 -459.06300354 231.6282196 C-462.17407995 228.1257615 -465.54997691 224.89028405 -468.90234375 221.62109375 C-470.45226595 220.09354836 -472.00173147 218.56553947 -473.55078125 217.03710938 C-475.95992502 214.66505581 -478.37194545 212.29623494 -480.79199219 209.93530273 C-483.1505839 207.63148967 -485.49602356 205.31492101 -487.83984375 202.99609375 C-488.55766022 202.30205948 -489.27547668 201.60802521 -490.01504517 200.89295959 C-496.10464421 194.83507579 -501.33893306 188.31274256 -501.421875 179.39648438 C-501.40253906 178.70619141 -501.38320313 178.01589844 -501.36328125 177.3046875 C-501.38261719 176.61826172 -501.40195312 175.93183594 -501.421875 175.22460938 C-501.33554263 165.92661286 -496.21370623 158.65892739 -489.88822937 152.248703 C-488.78339958 151.16846611 -488.78339958 151.16846611 -487.65625 150.06640625 C-486.49673576 148.90683159 -486.49673576 148.90683159 -485.313797 147.72383118 C-483.68838639 146.1037472 -482.05690943 144.48972864 -480.41967773 142.8815918 C-477.92902401 140.43287566 -475.46046454 137.96342895 -472.99414062 135.49023438 C-471.40360358 133.91018912 -469.8118469 132.33137046 -468.21875 130.75390625 C-467.4882695 130.02362717 -466.757789 129.29334808 -466.00517273 128.54093933 C-458.20744418 120.91945458 -452.19311241 116.7421875 -441.17578125 116.7421875 C-433.43831039 116.19976686 -429.70899783 113.48157502 -424.25439453 108.18554688 C-421.35213017 105.42255382 -418.27650779 102.85344265 -415.23828125 100.2421875 C-413.94638496 99.11745119 -412.65471465 97.99245527 -411.36328125 96.8671875 C-408.36563104 94.26922399 -405.32167356 91.73826699 -402.23828125 89.2421875 C-397.86882243 85.70253689 -393.60439116 82.05837488 -389.36328125 78.3671875 C-383.10973876 72.9267236 -376.83886711 67.51160147 -370.47753906 62.19726562 C-369.25306779 61.17286237 -368.03130506 60.14521724 -366.81152344 59.11523438 C-354.30660493 48.57649802 -342.55109558 40.6489517 -326.73828125 35.7421875 C-325.99449219 35.4946875 -325.25070312 35.2471875 -324.484375 34.9921875 C-305.48396784 29.63786533 -288.04474422 36.49545602 -271.05859375 44.45239258 C-242.90267185 57.6054438 -218.51907135 60.89855122 -187.69921875 60.69140625 C-186.73607758 60.68624496 -185.7729364 60.68108368 -184.78060913 60.67576599 C-179.97665572 60.64902993 -175.17404326 60.60563789 -170.37060547 60.5300293 C-152.74897893 60.33446906 -135.12642026 61.55279997 -121.36328125 73.8671875 C-119.73828125 75.7421875 -119.73828125 75.7421875 -119.73828125 77.7421875 C-103.49626645 63.86264758 -92.58102649 47.7661463 -81.47558594 29.68652344 C-76.55475507 21.69372879 -71.39288027 14.40913272 -64.73828125 7.7421875 C-63.89716797 6.88367188 -63.89716797 6.88367188 -63.0390625 6.0078125 C-46.52558953 -9.50605557 -18.96468172 -12.27665387 0 0 Z M-50.73828125 28.7421875 C-55.41654004 35.1100389 -59.53966535 41.82346046 -63.7265625 48.51953125 C-69.38782722 57.56979718 -75.02689418 66.42051796 -81.73828125 74.7421875 C-82.18107422 75.29181152 -82.62386719 75.84143555 -83.08007812 76.40771484 C-90.81236899 85.9245845 -99.36868906 96.37826727 -110.0234375 102.6875 C-113.45643933 105.28571434 -113.67028911 106.80214525 -114.30078125 110.9921875 C-116.02109153 119.83102309 -119.48573608 125.4672959 -126.44140625 131.20703125 C-138.07076046 138.97971187 -152.83788178 139.11114547 -166.30078125 139.3671875 C-167.1090033 139.38453949 -167.91722534 139.40189148 -168.74993896 139.41976929 C-175.4123215 139.56092214 -182.0750086 139.65475016 -188.73828125 139.7421875 C-189.91658508 139.75892517 -191.09488892 139.77566284 -192.30889893 139.79290771 C-200.03649187 139.90080369 -207.76370751 139.97987822 -215.49191284 140.02728271 C-218.06905481 140.04552588 -220.64615903 140.0702872 -223.22317505 140.10162354 C-226.86642022 140.14341715 -230.50888881 140.15901505 -234.15234375 140.16796875 C-235.24966324 140.18542648 -236.34698273 140.20288422 -237.47755432 140.22087097 C-244.97770115 140.19965147 -244.97770115 140.19965147 -248.89990234 137.84057617 C-252.20888588 134.06358899 -252.01948047 131.09179359 -251.94921875 126.22265625 C-251.66975233 122.93633819 -251.00240824 121.15725629 -248.73828125 118.7421875 C-242.94948561 116.04090922 -236.87993516 116.40945103 -230.625 116.36328125 C-228.83875969 116.33846931 -228.83875969 116.33846931 -227.01643372 116.31315613 C-224.47015455 116.27864065 -221.92381604 116.2482955 -219.37744141 116.22174072 C-215.41419339 116.17956418 -211.45131412 116.12479599 -207.48828125 116.06591797 C-202.27656441 115.98855382 -197.06482799 115.9137863 -191.85302734 115.84228516 C-179.55225181 115.6714593 -179.55225181 115.6714593 -167.25308228 115.4133606 C-165.30524192 115.36872203 -163.35707239 115.33924222 -161.40893555 115.31030273 C-153.56095614 115.10585728 -145.55264003 114.64836562 -139.11328125 109.7421875 C-136.99365765 105.11755419 -137.11341642 100.74110616 -137.73828125 95.7421875 C-139.34781246 91.8793126 -141.31277435 90.04484825 -144.73828125 87.7421875 C-152.38837416 84.98237528 -160.89697315 85.46044393 -168.91934013 85.46779251 C-171.29047322 85.4687732 -173.66117159 85.45563279 -176.03224182 85.43881226 C-182.76747234 85.39302889 -189.50265592 85.36800311 -196.23803711 85.36132812 C-229.98367026 85.31286029 -255.69133822 78.78292053 -286.5090332 65.18579102 C-287.45576904 64.76920731 -287.45576904 64.76920731 -288.42163086 64.34420776 C-290.15043324 63.5824693 -291.87763922 62.81711066 -293.60473633 62.05151367 C-305.61605068 57.032684 -315.71244693 57.99750349 -327.73828125 62.7421875 C-336.79265879 66.59348612 -343.68599727 72.66550208 -350.93554688 79.14111328 C-353.85658481 81.73539372 -356.82972194 84.26804435 -359.80078125 86.8046875 C-360.96745937 87.80467413 -362.1341261 88.80467406 -363.30078125 89.8046875 C-368.22602886 94.01838692 -373.17686671 98.20173503 -378.12939453 102.38330078 C-380.83400412 104.66764934 -383.53601818 106.95506411 -386.23828125 109.2421875 C-389.55794018 112.05155507 -392.87797107 114.86047948 -396.19921875 117.66796875 C-401.72741392 122.34181361 -407.25085534 127.02044893 -412.73828125 131.7421875 C-408.69943156 136.58748425 -404.47117631 141.14981749 -399.99853516 145.59545898 C-399.35392334 146.24021683 -398.70931152 146.88497467 -398.04516602 147.54927063 C-395.93742306 149.65632309 -393.82617232 151.75982224 -391.71484375 153.86328125 C-390.24346398 155.33279377 -388.77230645 156.80252885 -387.30136108 158.2724762 C-383.4468535 162.12318278 -379.58935126 165.97087557 -375.73120117 169.81793213 C-371.78772502 173.75114199 -367.84711121 177.6872173 -363.90625 181.62304688 C-356.18638026 189.33222196 -348.46334136 197.03821373 -340.73828125 204.7421875 C-340.1949968 204.33067947 -339.65171234 203.91917145 -339.09196472 203.49519348 C-338.37607681 202.95513168 -337.6601889 202.41506989 -336.92260742 201.85864258 C-336.21432297 201.32338455 -335.50603851 200.78812653 -334.77629089 200.23664856 C-332.29419295 198.41654003 -329.77119427 196.8694496 -327.05078125 195.4296875 C-326.16003906 194.93855469 -325.26929688 194.44742188 -324.3515625 193.94140625 C-312.62828496 190.05054549 -299.89330739 192.16675852 -287.84576416 193.2628479 C-282.28636925 193.76476906 -276.72344196 194.22321802 -271.16015625 194.6796875 C-270.03276031 194.77228348 -268.90536438 194.86487946 -267.74380493 194.96028137 C-211.4068157 199.50969802 -164.63078907 200.1683729 -117.73828125 164.7421875 C-116.7946875 164.03191406 -115.85109375 163.32164062 -114.87890625 162.58984375 C-109.14028906 158.1213982 -103.81729851 153.22661775 -98.49609375 148.27734375 C-96.34707029 146.30182501 -94.17821051 144.40814386 -91.92578125 142.5546875 C-88.86998778 139.96788871 -86.31606381 137.09397092 -83.73046875 134.04296875 C-81.43254051 131.38908692 -79.02292552 128.85751353 -76.61328125 126.3046875 C-69.73994035 118.90391606 -63.74317383 110.85063091 -57.73828125 102.7421875 C-57.29629395 102.15211914 -56.85430664 101.56205078 -56.39892578 100.95410156 C-40.23082273 79.32508123 -18.48514807 49.48412088 -12.73828125 22.7421875 C-18.13427435 18.22122031 -21.78396062 17.37745077 -28.6953125 17.46875 C-37.58404096 18.26748041 -44.94426308 22.00312559 -50.73828125 28.7421875 Z M-444.5100708 143.03295898 C-445.40275665 143.93896851 -445.40275665 143.93896851 -446.31347656 144.86328125 C-446.99388 145.54398682 -447.67428345 146.22469238 -448.37530518 146.92602539 C-449.09836853 147.66973389 -449.82143188 148.41344238 -450.56640625 149.1796875 C-451.31541199 149.93435303 -452.06441772 150.68901855 -452.83612061 151.46655273 C-455.22970577 153.88255454 -457.60902358 156.31208279 -459.98828125 158.7421875 C-461.60715314 160.38111736 -463.22693386 162.01915006 -464.84765625 163.65625 C-468.8218079 167.67453927 -472.78432835 171.70402669 -476.73828125 175.7421875 C-475.04533234 179.35037649 -473.0562028 181.64283053 -470.1953125 184.4453125 C-468.83116211 185.79302734 -468.83116211 185.79302734 -467.43945312 187.16796875 C-466.47693594 188.10975681 -465.51404306 189.05116105 -464.55078125 189.9921875 C-462.67985612 191.82825067 -460.81132171 193.66675345 -458.9453125 195.5078125 C-457.69971558 196.72645996 -457.69971558 196.72645996 -456.42895508 197.96972656 C-454.44660564 200.01233251 -452.59736599 202.0523504 -450.75341797 204.21166992 C-445.23067346 210.57636351 -439.22165874 216.4858997 -433.2890625 222.46484375 C-432.3297989 223.43209287 -432.3297989 223.43209287 -431.35115623 224.41888237 C-427.97809369 227.81848573 -424.60149522 231.21453578 -421.22241211 234.6081543 C-418.42891647 237.41508178 -415.64290718 240.22913922 -412.86303711 243.04956055 C-409.49434296 246.46736943 -406.11372742 249.87292981 -402.72395897 253.26983452 C-401.43627233 254.56425127 -400.15285819 255.86293269 -398.87380409 257.1658802 C-397.09309853 258.97799137 -395.29749603 260.77391568 -393.49731445 262.56665039 C-392.9709993 263.10937088 -392.44468414 263.65209137 -391.90242004 264.21125793 C-389.21215677 266.98856199 -389.21215677 266.98856199 -385.58932495 267.75238037 C-383.51076252 266.6180209 -382.04231294 265.42719943 -380.36254883 263.75463867 C-379.72541458 263.12696091 -379.08828033 262.49928314 -378.43183899 261.85258484 C-377.75566025 261.1703334 -377.07948151 260.48808197 -376.3828125 259.78515625 C-375.68057053 259.08578445 -374.97832855 258.38641266 -374.25480652 257.66584778 C-372.77270502 256.18578696 -371.29438215 254.70193404 -369.81958008 253.21459961 C-367.55938662 250.93835399 -365.28366148 248.6785311 -363.00585938 246.41992188 C-361.56804752 244.98012759 -360.13116656 243.53940297 -358.6953125 242.09765625 C-358.01306107 241.42147751 -357.33080963 240.74529877 -356.62788391 240.04862976 C-356.00020615 239.41149551 -355.37252838 238.77436127 -354.72583008 238.11791992 C-353.89454338 237.28305305 -353.89454338 237.28305305 -353.04646301 236.43132019 C-351.50738788 234.4440565 -351.014659 233.24109265 -350.73828125 230.7421875 C-351.86332594 228.79125406 -351.86332594 228.79125406 -353.6653595 227.01367188 C-354.3175326 226.3152417 -354.9697057 225.61681152 -355.64164162 224.8972168 C-356.3335327 224.18605713 -357.02542377 223.47489746 -357.73828125 222.7421875 C-358.37591589 222.07678955 -359.01355053 221.4113916 -359.67050743 220.72583008 C-361.7312137 218.59876754 -363.81476191 216.4964471 -365.9050293 214.3984375 C-366.68966553 213.60723007 -367.47430176 212.81602264 -368.28271484 212.00083923 C-370.85226642 209.41174459 -373.42567485 206.82653542 -376 204.2421875 C-376.88222544 203.35588654 -377.76445087 202.46958557 -378.67341042 201.556427 C-382.85279806 197.35840448 -387.0342008 193.16240604 -391.218723 188.96950245 C-396.03851838 184.13988934 -400.84987358 179.30206266 -405.654432 174.45729256 C-409.82923538 170.24875445 -414.01492676 166.05116046 -418.20459938 161.85742188 C-419.98262169 160.07451656 -421.75725302 158.28822302 -423.5284481 156.49853516 C-425.9962856 154.0065098 -428.47627552 151.52724296 -430.9597168 149.05078125 C-431.6917482 148.30593979 -432.4237796 147.56109833 -433.17799377 146.79368591 C-433.85492279 146.12370071 -434.53185181 145.45371552 -435.22929382 144.76342773 C-435.81383677 144.17649643 -436.39837973 143.58956512 -437.0006361 142.98484802 C-439.67233754 141.07420597 -441.86463721 141.10572657 -444.5100708 143.03295898 Z " fill="#fff" transform="translate(500.73828125,214.2578125)"/>
<path d="M0 0 C5.49528694 4.97948384 10.5971137 10.11113791 15.1640625 15.9609375 C16.03804687 14.81818359 16.03804687 14.81818359 16.9296875 13.65234375 C29.79272788 -2.54780616 44.73787637 -10.42758776 65.1640625 -13.0390625 C83.53451445 -14.60387346 101.9725002 -9.51625259 116.3125 2.296875 C117.22902344 3.12058594 117.22902344 3.12058594 118.1640625 3.9609375 C118.96070313 4.65445312 119.75734375 5.34796875 120.578125 6.0625 C132.33288345 16.96494968 140.13848921 32.18571992 141.34106445 48.33837891 C142.50954753 95.51530104 118.62367538 132.99624545 89.1640625 167.9609375 C88.7319043 168.4780127 88.29974609 168.99508789 87.85449219 169.52783203 C80.22855001 178.63973123 72.22265236 187.34384275 64.04785156 195.96386719 C62.25883193 197.86046913 60.48578521 199.77042393 58.71875 201.6875 C51.33890847 209.67695347 43.77578652 217.47663175 36.1100769 225.19116211 C35.02685931 226.28184709 33.94523556 227.37411748 32.86526489 228.46801758 C31.34116659 230.0100083 29.81033202 231.54497804 28.27734375 233.078125 C27.38829346 233.97128418 26.49924316 234.86444336 25.58325195 235.78466797 C21.54315431 239.41908419 18.8166417 240.17883883 13.359375 240.421875 C6.37033116 238.95442451 1.08762934 232.15803014 -3.70703125 227.3203125 C-4.5475856 226.47929993 -5.38813995 225.63828735 -6.25416565 224.77178955 C-8.02736895 222.99557261 -9.79814866 221.2169333 -11.56665039 219.43603516 C-14.25553723 216.72895886 -16.95227225 214.02990342 -19.65039062 211.33203125 C-21.37807527 209.59942797 -23.10530374 207.86636967 -24.83203125 206.1328125 C-25.63015732 205.33357361 -26.42828339 204.53433472 -27.25059509 203.71087646 C-31.42289277 199.50359635 -35.45077317 195.22514222 -39.30766296 190.72608948 C-41.85406272 187.78500628 -44.54222366 184.97805008 -47.2109375 182.1484375 C-52.69023876 176.28596832 -57.83254595 170.23652247 -62.8359375 163.9609375 C-63.74308097 162.86706864 -64.65203352 161.7746983 -65.5625 160.68359375 C-91.37473888 129.49128635 -115.33848559 89.98933055 -111.5625 47.9140625 C-109.22763685 31.26164232 -101.4532008 17.8189731 -89.8359375 5.9609375 C-89.24425781 5.33316406 -88.65257812 4.70539062 -88.04296875 4.05859375 C-65.89895582 -17.49882281 -23.7673835 -19.79174844 0 0 Z M-68.8359375 20.9609375 C-69.7434375 21.5796875 -70.6509375 22.1984375 -71.5859375 22.8359375 C-80.96711914 31.69594238 -86.62628155 43.58109073 -87.1484375 56.4609375 C-86.39730063 85.00413843 -71.59962212 110.7379698 -54.8359375 132.9609375 C-53.98299105 134.11061635 -53.1301227 135.26035315 -52.27734375 136.41015625 C-43.66469223 147.9045359 -34.15635018 158.65298019 -24.3984375 169.1796875 C-22.11227007 171.66101557 -19.87720632 174.17824566 -17.6484375 176.7109375 C-12.87418039 182.04636407 -7.78995026 187.06289331 -2.68286133 192.07714844 C1.22355357 195.93298083 4.90751622 199.87856578 8.42138672 204.09716797 C10.49096914 206.31055999 12.76606029 208.11455241 15.1640625 209.9609375 C18.88441599 206.26552193 22.60130476 202.56666668 26.31518555 198.86474609 C27.57598465 197.6089393 28.83768426 196.35403586 30.1003418 195.10009766 C39.14465829 186.14870844 39.14465829 186.14870844 47.66674805 176.70556641 C50.34592795 173.58386095 53.21010206 170.63379059 56.0390625 167.6484375 C60.83584969 162.54234307 65.45901796 157.3684051 69.828125 151.88671875 C71.61201554 149.65238094 73.41754258 147.44784235 75.25 145.25390625 C91.99651303 125.12112259 106.82734763 102.32198552 114.1640625 76.9609375 C114.3909375 76.18878906 114.6178125 75.41664062 114.8515625 74.62109375 C118.14343082 61.24787869 117.40410735 46.68137574 110.84375 34.51171875 C103.92046674 23.37015089 94.42272133 15.89462365 81.6015625 12.5859375 C70.03877435 10.56868849 57.97141683 11.84367227 48.078125 18.484375 C43.10023528 22.32446136 39.34797621 25.65267807 35.7890625 30.8984375 C35.41112549 31.45184814 35.03318848 32.00525879 34.64379883 32.57543945 C31.06582805 37.9062206 27.99556049 43.49234904 24.98828125 49.16015625 C23.13846693 52.00023519 22.34421352 52.98383003 19.1640625 53.9609375 C16.98046875 54.296875 16.98046875 54.296875 14.7265625 54.3359375 C13.98535156 54.36429688 13.24414062 54.39265625 12.48046875 54.421875 C9.07511817 53.74425043 7.62415641 52.42103141 5.1640625 49.9609375 C3.38482397 47.20518496 1.90838322 44.31609268 0.4140625 41.3984375 C-6.17591404 29.11980407 -13.02635596 18.75733209 -26.75 13.9375 C-41.95851615 9.65396444 -55.86335401 11.96885098 -68.8359375 20.9609375 Z " fill="#fff" transform="translate(304.8359375,18.0390625)"/>
</svg>
