<?xml version="1.0" encoding="UTF-8"?>
<svg version="1.1" xmlns="http://www.w3.org/2000/svg" width="512" height="512">
<path d="M0 0 C0.43340652 6.79286827 0.72957657 13.58215814 0.93383789 20.38574219 C1.01900238 22.69536428 1.13479245 25.00407807 1.2824707 27.31054688 C2.44861521 46.00113984 2.44861521 46.00113984 -1.62979126 50.99603271 C-5.66668446 54.28799296 -10.12356937 56.25892766 -14.95378113 58.11502075 C-20.01477225 60.30387365 -23.98132888 64.3117129 -28 68 C-28.73210693 68.66854004 -28.73210693 68.66854004 -29.47900391 69.35058594 C-51.47477877 89.66617642 -65.00288446 118.38170307 -66.28125 148.359375 C-67.10565902 181.22123462 -55.9710665 211.16380385 -33.32763672 235.07055664 C-12.50646353 256.39071895 16.45458601 268.60628665 46.16210938 269.3515625 C78.83596397 269.62140851 108.3446318 257.55303021 131.6875 234.75 C147.32937017 218.88001922 156.76134383 199.548926 162 178 C162.24492187 177.03707031 162.48984375 176.07414063 162.7421875 175.08203125 C168.76742495 146.48278774 161.19770384 115.46805646 146 91 C137.5122266 78.01724326 126.42157082 66.8171723 113.55859375 58.1953125 C113.04312988 57.83864502 112.52766602 57.48197754 111.99658203 57.11450195 C109.90031395 55.85299399 109.90031395 55.85299399 106.95263672 55.06323242 C102.9065884 53.51916483 100.80579448 52.34183749 98 49 C95.88685962 40.98604007 96.88405241 32.25086492 97.25 24.0625 C97.31021925 21.73386044 97.36496755 19.40507253 97.4140625 17.07617188 C97.54604613 11.38087105 97.74653984 5.69111937 98 0 C99.59535127 0.47259415 101.19023128 0.94677934 102.78491211 1.42163086 C103.67311142 1.68552109 104.56131073 1.94941132 105.47642517 2.22129822 C127.05360619 8.87938861 145.77568885 22.67851467 162 38 C162.79792969 38.73347656 163.59585937 39.46695313 164.41796875 40.22265625 C193.92486798 68.3222312 209.84253721 109.496462 210.9921875 149.83984375 C211.26397805 175.72537749 206.27619268 200.67513063 195 224 C194.65598145 224.72622559 194.31196289 225.45245117 193.95751953 226.20068359 C186.18776083 242.41756457 175.49104516 256.14318485 163 269 C162.20734741 269.82661133 162.20734741 269.82661133 161.39868164 270.66992188 C150.30552423 282.05009298 137.10805675 290.81882361 123 298 C122.38979004 298.31662598 121.77958008 298.63325195 121.15087891 298.95947266 C102.19269843 308.70575873 80.35338382 315.06659278 58.9765625 315.203125 C57.8676918 315.21371445 57.8676918 315.21371445 56.73641968 315.22451782 C26.00015082 315.45153081 26.00015082 315.45153081 13 312 C11.81229004 311.69400879 11.81229004 311.69400879 10.60058594 311.38183594 C-1.07478251 308.3051278 -12.14328638 304.26973144 -23 299 C-23.62181152 298.70399902 -24.24362305 298.40799805 -24.88427734 298.10302734 C-40.43773092 290.61552603 -53.66692643 279.98220377 -66 268 C-66.55107422 267.47156494 -67.10214844 266.94312988 -67.66992188 266.39868164 C-79.04055992 255.31481685 -87.84913197 242.11355532 -95 228 C-95.32194336 227.36852051 -95.64388672 226.73704102 -95.97558594 226.08642578 C-105.6062114 206.958249 -112.06573358 185.51286375 -112.203125 163.9765625 C-112.21013931 163.23722473 -112.21715363 162.49788696 -112.22438049 161.73614502 C-112.24177777 159.36570061 -112.24823191 156.99550589 -112.25 154.625 C-112.25067474 153.81565002 -112.25134949 153.00630005 -112.25204468 152.17242432 C-112.23655332 140.49715624 -111.84929873 129.37421671 -109 118 C-108.83371094 117.28360352 -108.66742188 116.56720703 -108.49609375 115.82910156 C-105.71188831 103.90342158 -101.35246935 92.99145174 -96 82 C-95.68691895 81.34402832 -95.37383789 80.68805664 -95.05126953 80.01220703 C-88.01538891 65.40781957 -78.17667729 52.6931596 -67 41 C-66.35417969 40.29101562 -65.70835938 39.58203125 -65.04296875 38.8515625 C-51.14433687 24.12911114 -21.55094791 0 0 0 Z " fill="#fff" transform="translate(112,197)"/>
<path d="M0 0 C1.59036474 0.46626136 3.17988271 0.93541149 4.76904297 1.40576172 C5.65429657 1.66670624 6.53955017 1.92765076 7.45162964 2.19650269 C28.81990067 8.93388617 47.90473563 22.82756698 64 38 C64.71285156 38.64839844 65.42570313 39.29679687 66.16015625 39.96484375 C78.21052573 51.35911326 87.53828103 65.27292308 95 80 C95.32194336 80.63147949 95.64388672 81.26295898 95.97558594 81.91357422 C105.60625719 101.04184194 112.06557377 122.48706975 112.203125 144.0234375 C112.21371445 145.1323082 112.21371445 145.1323082 112.22451782 146.26358032 C112.45153081 176.99984918 112.45153081 176.99984918 109 190 C108.79600586 190.79180664 108.59201172 191.58361328 108.38183594 192.39941406 C105.3051278 204.07478251 101.26973144 215.14328638 96 226 C95.70399902 226.62181152 95.40799805 227.24362305 95.10302734 227.88427734 C87.61552603 243.43773092 76.98220377 256.66692643 65 269 C64.20734741 269.82661133 64.20734741 269.82661133 63.39868164 270.66992188 C52.30552423 282.05009298 39.10805675 290.81882361 25 298 C24.38979004 298.31662598 23.77958008 298.63325195 23.15087891 298.95947266 C4.19278155 308.70571599 -17.64668375 315.06675142 -39.0234375 315.203125 C-39.76277527 315.21013931 -40.50211304 315.21715363 -41.26385498 315.22438049 C-43.63429939 315.24177777 -46.00449411 315.24823191 -48.375 315.25 C-49.58902496 315.25101212 -49.58902496 315.25101212 -50.82757568 315.25204468 C-62.50284376 315.23655332 -73.62578329 314.84929873 -85 312 C-85.71639648 311.83371094 -86.43279297 311.66742188 -87.17089844 311.49609375 C-102.03312435 308.02631338 -115.42793206 301.84703203 -129 295 C-129 294.34 -129 293.68 -129 293 C-127.46445901 291.65186756 -125.86809091 290.37284977 -124.25 289.125 C-114.64484699 281.42112406 -106.31967496 272.78288058 -98.7421875 263.08203125 C-97 261 -97 261 -95 260 C-92.27628631 260.85473446 -89.61775485 261.77480557 -86.9375 262.75 C-57.70867794 272.82107081 -26.57251095 271.16508956 1.45703125 257.9609375 C29.18753081 244.21920888 50.30936458 220.50389032 60.3125 191.125 C69.91309368 161.17915616 67.87431962 129.60188368 53.87451172 101.35058594 C44.83264854 83.95785738 31.86181351 69.12311516 15.55859375 58.1953125 C15.04312988 57.83864502 14.52766602 57.48197754 13.99658203 57.11450195 C11.90031395 55.85299399 11.90031395 55.85299399 8.95263672 55.06323242 C4.9065884 53.51916483 2.80579448 52.34183749 0 49 C-2.11314038 40.98604007 -1.11594759 32.25086492 -0.75 24.0625 C-0.68978075 21.73386044 -0.63503245 19.40507253 -0.5859375 17.07617188 C-0.45395387 11.38087105 -0.25346016 5.69111937 0 0 Z " fill="#fff" transform="translate(400,197)"/>
<path d="M0 0 C21.12 0 42.24 0 64 0 C64.06614262 31.34719427 64.1215327 62.69432118 64.15319599 94.04156346 C64.15694809 97.74279698 64.16083106 101.44403036 64.16479492 105.14526367 C64.16558185 105.88210935 64.16636878 106.61895502 64.16717956 107.37812936 C64.18023176 119.30739802 64.20388457 131.23662328 64.23145839 143.1658662 C64.25951778 155.40732163 64.27617739 167.64875434 64.28226548 179.89024061 C64.28638082 187.44326675 64.29937654 194.99617024 64.3237494 202.54915863 C64.34148911 208.34182124 64.34336426 214.13440534 64.33932304 219.92708969 C64.34014895 222.30267912 64.34612402 224.67827315 64.35761642 227.05383492 C64.37253507 230.29644212 64.36895552 233.53852391 64.36076355 236.78114319 C64.36950207 237.72181753 64.3782406 238.66249187 64.38724393 239.63167149 C64.3440907 245.9483467 63.59768342 251.03627937 59.28125 255.9609375 C58.6934375 256.42757813 58.105625 256.89421875 57.5 257.375 C56.61828125 258.09816406 56.61828125 258.09816406 55.71875 258.8359375 C51.68261005 261.56950501 47.31730376 261.19475891 42.640625 261.23828125 C41.81802185 261.246353 40.9954187 261.25442474 40.14788818 261.26274109 C38.40623065 261.2765672 36.66454619 261.28729595 34.92285156 261.29516602 C33.14803082 261.30667609 31.37324442 261.32711259 29.59863281 261.35668945 C27.02905847 261.39951569 24.46051264 261.41555644 21.890625 261.42578125 C21.10496155 261.44328934 20.3192981 261.46079742 19.50982666 261.47883606 C13.87378486 261.45686813 10.65443627 260.2031439 6 257 C0.10644986 250.78787958 -0.2908853 245.20629643 -0.24050903 237.02165222 C-0.24221788 236.00874266 -0.24392673 234.99583311 -0.24568737 233.95222932 C-0.24898462 230.55426282 -0.23797453 227.15649327 -0.22705078 223.75854492 C-0.22648672 221.32434087 -0.22680313 218.89013647 -0.22793579 216.45593262 C-0.2283914 211.21325459 -0.22271433 205.9706212 -0.21146011 200.72795677 C-0.19519906 193.14796873 -0.18999649 185.56800474 -0.18748413 177.98800115 C-0.18310798 165.68965964 -0.16980104 153.39134467 -0.15087891 141.09301758 C-0.13251804 129.14705539 -0.11836255 117.20110041 -0.10986328 105.25512695 C-0.10933783 104.51865266 -0.10881239 103.78217837 -0.10827102 103.02338668 C-0.10566092 99.3286743 -0.10313351 95.63396186 -0.10064721 91.9392494 C-0.07991719 61.29280972 -0.04304877 30.64641878 0 0 Z " fill="#fff" transform="translate(129,0)"/>
<path d="M0 0 C21.12 0 42.24 0 64 0 C64.08820433 31.33017754 64.16205226 62.66023515 64.20426132 93.99049813 C64.20926406 97.69044298 64.21444136 101.39038757 64.21972656 105.09033203 C64.2207758 105.8269154 64.22182505 106.56349876 64.22290608 107.32240283 C64.24030496 119.24454738 64.27183978 131.16661467 64.30861118 143.08871341 C64.34603504 155.32452149 64.3682389 167.56028915 64.37635398 179.79615211 C64.38183878 187.34461067 64.39915352 194.89285084 64.43166587 202.44124216 C64.45533597 208.23218904 64.45781619 214.02299641 64.45243073 219.81398201 C64.45353113 222.18754482 64.46148717 224.56111591 64.4768219 226.93462944 C64.49674264 230.17701923 64.4919308 233.41847702 64.48101807 236.66088867 C64.49266943 237.59865017 64.5043208 238.53641167 64.51632524 239.50259018 C64.45634414 246.10251189 63.17898733 251.65337147 58.51725984 256.56093121 C53.43398891 260.99038432 49.10237475 261.17814659 42.640625 261.23828125 C41.81802185 261.246353 40.9954187 261.25442474 40.14788818 261.26274109 C38.40623065 261.2765672 36.66454619 261.28729595 34.92285156 261.29516602 C33.14803082 261.30667609 31.37324442 261.32711259 29.59863281 261.35668945 C27.02905847 261.39951569 24.46051264 261.41555644 21.890625 261.42578125 C21.10496155 261.44328934 20.3192981 261.46079742 19.50982666 261.47883606 C13.87378486 261.45686813 10.65443627 260.2031439 6 257 C0.10644986 250.78787958 -0.2908853 245.20629643 -0.24050903 237.02165222 C-0.24221788 236.00874266 -0.24392673 234.99583311 -0.24568737 233.95222932 C-0.24898462 230.55426282 -0.23797453 227.15649327 -0.22705078 223.75854492 C-0.22648672 221.32434087 -0.22680313 218.89013647 -0.22793579 216.45593262 C-0.2283914 211.21325459 -0.22271433 205.9706212 -0.21146011 200.72795677 C-0.19519906 193.14796873 -0.18999649 185.56800474 -0.18748413 177.98800115 C-0.18310798 165.68965964 -0.16980104 153.39134467 -0.15087891 141.09301758 C-0.13251804 129.14705539 -0.11836255 117.20110041 -0.10986328 105.25512695 C-0.10933783 104.51865266 -0.10881239 103.78217837 -0.10827102 103.02338668 C-0.10566092 99.3286743 -0.10313351 95.63396186 -0.10064721 91.9392494 C-0.07991719 61.29280972 -0.04304877 30.64641878 0 0 Z " fill="#fff" transform="translate(319,0)"/>
<path d="M0 0 C12.73886291 4.92368203 27.22757175 18.67123349 33 31 C32.80530213 36.48398997 30.96298027 41.32983197 29.125 46.4375 C20.33432927 72.17635271 20.6942189 98.31892624 29.93017578 123.85083008 C31.5021151 128.21805269 32.92385549 132.31167402 33 137 C31.66578924 139.4603336 30.52806389 141.1684747 28.75 143.25 C28.29689453 143.80574707 27.84378906 144.36149414 27.37695312 144.93408203 C19.93296115 153.89699555 11.87174615 161.72576655 2 168 C-1.31145591 166.96241048 -2.08684291 165.85742997 -3.9296875 162.83203125 C-4.59300875 161.4994933 -5.24054626 160.15902179 -5.875 158.8125 C-6.22159668 158.09054443 -6.56819336 157.36858887 -6.92529297 156.62475586 C-7.96833918 154.42445253 -8.98691335 152.2142313 -10 150 C-10.54140625 148.83984375 -11.0828125 147.6796875 -11.640625 146.484375 C-24.88141105 115.96087874 -27.40977966 80.31698563 -20 48 C-19.76071777 46.94232422 -19.76071777 46.94232422 -19.51660156 45.86328125 C-17.33971285 36.55405274 -14.28039987 27.74280659 -10.5625 18.9375 C-10.20333496 18.08124023 -9.84416992 17.22498047 -9.47412109 16.34277344 C-6.89669369 10.45249574 -3.72463536 5.23532662 0 0 Z " fill="#fff" transform="translate(213,267)"/>
<path d="M0 0 C0 14.85 0 29.7 0 45 C-3.55858534 41.44141466 -7.0016568 37.85041687 -10.375 34.125 C-16.91163492 26.96104048 -23.62607605 20.3013532 -31 14 C-23.50304799 8.03771817 -9.7206843 0 0 0 Z " fill="#fff" transform="translate(302,197)"/>
</svg>
